<?xml version="1.0" encoding="utf-8"?>
<!-- Generator: Adobe Illustrator 23.0.4, SVG Export Plug-In . SVG Version: 6.00 Build 0)  -->
<svg version="1.1" id="Layer_1" xmlns="http://www.w3.org/2000/svg" xmlns:xlink="http://www.w3.org/1999/xlink" x="0px" y="0px"
	 viewBox="0 0 434.2 434.2" style="enable-background:new 0 0 434.2 434.2;" xml:space="preserve">
<style type="text/css">
	.st0{fill:#FFFFFF;}
</style>
<g>
	<path class="st0" d="M217.1,119.4c-24.8,0-45,20.2-45,45s20.2,45,45,45s45-20.2,45-45S241.9,119.4,217.1,119.4z"/>
	<path class="st0" d="M217.1,0C125.2,0,50.5,74.7,50.5,166.6c0,38.9,13.4,74.8,35.9,103.2l130.7,164.4l130.7-164.4
		c22.5-28.4,35.9-64.2,35.9-103.2C383.7,74.7,309,0,217.1,0z M217.1,239.4c-41.4,0-75-33.6-75-75s33.6-75,75-75s75,33.6,75,75
		S258.4,239.4,217.1,239.4z"/>
</g>
</svg>
