<svg xmlns="http://www.w3.org/2000/svg" width="619.45" height="90" viewBox="0 0 619.45 90">
  <title>contactcenter</title>
  <g>
    <polygon points="610.55 26.5 593.75 8 574.45 5.2 552.45 10.3 538.85 26.5 534.85 51.2 540.65 69.6 537.25 80.4 534.85 86 547.15 81.8 553.75 79.8 570.85 86 587.35 84.6 605.55 74.5 613.15 60.2 615.95 42.6 615.15 31.7 610.55 26.5" style="fill: #03244b"/>
    <path d="M619.45,44.9a44,44,0,0,1-44.2,43.8,44.51,44.51,0,0,1-21.4-5.5L529.35,91l8-23.5A44.08,44.08,0,1,1,619.45,44.9ZM575.25,8a37,37,0,0,0-37.1,36.9,36.08,36.08,0,0,0,7.1,21.6l-4.6,13.7L555,75.7A37,37,0,1,0,575.25,8Zm22.3,47a7.69,7.69,0,0,0-2.1-1.3c-1.1-.5-6.4-3.1-7.4-3.5s-1.7-.5-2.4.5-2.8,3.5-3.4,4.2a1.67,1.67,0,0,1-2.3.3,29.07,29.07,0,0,1-8.7-5.3,32.38,32.38,0,0,1-6-7.4,1.54,1.54,0,0,1,.5-2.2c0.5-.5,1.1-1.3,1.6-1.9a10.81,10.81,0,0,0,1.1-1.8,1.84,1.84,0,0,0-.1-1.9c-0.3-.5-2.4-5.8-3.3-8s-1.8-1.8-2.4-1.8-1.4-.1-2.1-0.1a4.31,4.31,0,0,0-2.9,1.3,12.11,12.11,0,0,0-3.8,9c0,5.3,3.9,10.4,4.4,11.1s7.5,11.9,18.5,16.2,11,2.9,13,2.7,6.4-2.6,7.3-5.1S597.85,55.5,597.55,55Z" style="fill: #fff"/>
  </g>
  <g style="isolation: isolate">
    <path d="M41.58,62.16a26.87,26.87,0,0,1-11.07,2C18.69,64.15,9.8,56.68,9.8,42.93c0-13.13,8.9-22,21.9-22,5.23,0,8.52,1.12,10,1.87l-1.31,4.42a19.72,19.72,0,0,0-8.46-1.74c-9.83,0-16.36,6.28-16.36,17.29,0,10.26,5.91,16.86,16.11,16.86a21.66,21.66,0,0,0,8.83-1.74Z" style="fill: #03244b"/>
    <path d="M80.71,48.22c0,11.14-7.71,16-15,16-8.15,0-14.43-6-14.43-15.49,0-10.08,6.59-16,14.93-16C74.87,32.73,80.71,39,80.71,48.22Zm-23.89.31c0,6.59,3.79,11.57,9.14,11.57s9.15-4.91,9.15-11.7c0-5.1-2.55-11.57-9-11.57S56.82,42.81,56.82,48.53Z" style="fill: #03244b"/>
    <path d="M93.59,41.57c0-3.11-.06-5.66-0.25-8.15h4.85l0.31,5h0.12a11.07,11.07,0,0,1,10-5.66c4.17,0,10.64,2.49,10.64,12.82v18h-5.47V46.17c0-4.85-1.8-8.9-7-8.9a7.78,7.78,0,0,0-7.34,5.6,7.86,7.86,0,0,0-.37,2.55v18.1H93.59v-22Z" style="fill: #03244b"/>
    <path d="M140.43,24.77v8.65h7.84v4.17h-7.84V53.82c0,3.73,1.06,5.85,4.11,5.85a12.18,12.18,0,0,0,3.17-.37L148,63.4a13.4,13.4,0,0,1-4.85.75,7.59,7.59,0,0,1-5.91-2.3c-1.56-1.62-2.12-4.29-2.12-7.84V37.58h-4.67V33.42h4.67V26.2Z" style="fill: #03244b"/>
    <path d="M177.07,63.53l-0.44-3.79h-0.19a11.21,11.21,0,0,1-9.21,4.48c-6.1,0-9.21-4.29-9.21-8.65,0-7.28,6.47-11.26,18.1-11.2V43.74c0-2.49-.68-7-6.84-7A15,15,0,0,0,161.46,39l-1.24-3.61a18.69,18.69,0,0,1,9.89-2.67c9.21,0,11.45,6.28,11.45,12.32V56.31a42.42,42.42,0,0,0,.5,7.22h-5Zm-0.81-15.37c-6-.12-12.75.93-12.75,6.78a4.84,4.84,0,0,0,5.16,5.23,7.49,7.49,0,0,0,7.28-5,5.71,5.71,0,0,0,.31-1.74V48.16Z" style="fill: #03244b"/>
    <path d="M217.81,62.41a20.15,20.15,0,0,1-8.65,1.74c-9.08,0-15-6.16-15-15.37s6.35-16,16.18-16a18.31,18.31,0,0,1,7.59,1.55l-1.24,4.23a12.7,12.7,0,0,0-6.34-1.43c-6.91,0-10.64,5.1-10.64,11.38,0,7,4.48,11.26,10.45,11.26a15.54,15.54,0,0,0,6.72-1.49Z" style="fill: #03244b"/>
    <path d="M237.6,24.77v8.65h7.84v4.17H237.6V53.82c0,3.73,1.06,5.85,4.11,5.85a12.19,12.19,0,0,0,3.17-.37l0.25,4.11a13.4,13.4,0,0,1-4.85.75,7.59,7.59,0,0,1-5.91-2.3c-1.55-1.62-2.12-4.29-2.12-7.84V37.58h-4.67V33.42h4.67V26.2Z" style="fill: #03244b"/>
    <path d="M306.21,62.16a26.88,26.88,0,0,1-11.07,2c-11.82,0-20.72-7.46-20.72-21.21,0-13.13,8.9-22,21.9-22,5.23,0,8.52,1.12,10,1.87L305,27.19a19.72,19.72,0,0,0-8.46-1.74c-9.83,0-16.36,6.28-16.36,17.29,0,10.26,5.91,16.86,16.11,16.86a21.67,21.67,0,0,0,8.83-1.74Z" style="fill: #03244b"/>
    <path d="M321.14,49.47c0.12,7.4,4.85,10.45,10.33,10.45a19.81,19.81,0,0,0,8.34-1.55l0.93,3.92a24.39,24.39,0,0,1-10,1.87c-9.27,0-14.81-6.1-14.81-15.18S321.26,32.73,330,32.73c9.83,0,12.44,8.65,12.44,14.18a20.59,20.59,0,0,1-.19,2.55H321.14Zm16.05-3.92c0.06-3.48-1.43-8.9-7.59-8.9-5.54,0-8,5.1-8.4,8.9h16Z" style="fill: #03244b"/>
    <path d="M355.23,41.57c0-3.11-.06-5.66-0.25-8.15h4.85l0.31,5h0.12a11.07,11.07,0,0,1,10-5.66c4.17,0,10.64,2.49,10.64,12.82v18h-5.47V46.17c0-4.85-1.8-8.9-7-8.9a7.78,7.78,0,0,0-7.34,5.6,7.89,7.89,0,0,0-.37,2.55v18.1h-5.47v-22Z" style="fill: #03244b"/>
    <path d="M402.07,24.77v8.65h7.84v4.17h-7.84V53.82c0,3.73,1.06,5.85,4.11,5.85a12.19,12.19,0,0,0,3.17-.37l0.25,4.11a13.4,13.4,0,0,1-4.85.75,7.59,7.59,0,0,1-5.91-2.3c-1.55-1.62-2.12-4.29-2.12-7.84V37.58h-4.67V33.42h4.67V26.2Z" style="fill: #03244b"/>
    <path d="M424.71,49.47c0.12,7.4,4.85,10.45,10.33,10.45a19.81,19.81,0,0,0,8.34-1.55l0.93,3.92a24.39,24.39,0,0,1-10,1.87c-9.27,0-14.81-6.1-14.81-15.18s5.35-16.24,14.12-16.24c9.83,0,12.44,8.65,12.44,14.18a20.59,20.59,0,0,1-.19,2.55H424.71Zm16-3.92c0.06-3.48-1.43-8.9-7.59-8.9-5.54,0-8,5.1-8.4,8.9h16Z" style="fill: #03244b"/>
    <path d="M458.8,42.81c0-3.55-.06-6.59-0.25-9.39h4.79l0.19,5.91h0.25c1.37-4,4.67-6.59,8.34-6.59a5.93,5.93,0,0,1,1.55.19v5.16a8.24,8.24,0,0,0-1.87-.19c-3.86,0-6.59,2.92-7.34,7a15.44,15.44,0,0,0-.25,2.55v16H458.8V42.81Z" style="fill: #03244b"/>
    <path d="M509.25,16.87V79.08h-4.17V16.87h4.17Z" style="fill: #03244b"/>
  </g>
  <g style="isolation: isolate">
    <path d="M41.58,62.16a26.87,26.87,0,0,1-11.07,2C18.69,64.15,9.8,56.68,9.8,42.93c0-13.13,8.9-22,21.9-22,5.23,0,8.52,1.12,10,1.87l-1.31,4.42a19.72,19.72,0,0,0-8.46-1.74c-9.83,0-16.36,6.28-16.36,17.29,0,10.26,5.91,16.86,16.11,16.86a21.66,21.66,0,0,0,8.83-1.74Z" style="fill: none;stroke: #03244b;stroke-miterlimit: 10;stroke-width: 3px"/>
    <path d="M80.71,48.22c0,11.14-7.71,16-15,16-8.15,0-14.43-6-14.43-15.49,0-10.08,6.59-16,14.93-16C74.87,32.73,80.71,39,80.71,48.22Zm-23.89.31c0,6.59,3.79,11.57,9.14,11.57s9.15-4.91,9.15-11.7c0-5.1-2.55-11.57-9-11.57S56.82,42.81,56.82,48.53Z" style="fill: none;stroke: #03244b;stroke-miterlimit: 10;stroke-width: 3px"/>
    <path d="M93.59,41.57c0-3.11-.06-5.66-0.25-8.15h4.85l0.31,5h0.12a11.07,11.07,0,0,1,10-5.66c4.17,0,10.64,2.49,10.64,12.82v18h-5.47V46.17c0-4.85-1.8-8.9-7-8.9a7.78,7.78,0,0,0-7.34,5.6,7.86,7.86,0,0,0-.37,2.55v18.1H93.59v-22Z" style="fill: none;stroke: #03244b;stroke-miterlimit: 10;stroke-width: 3px"/>
    <path d="M140.43,24.77v8.65h7.84v4.17h-7.84V53.82c0,3.73,1.06,5.85,4.11,5.85a12.18,12.18,0,0,0,3.17-.37L148,63.4a13.4,13.4,0,0,1-4.85.75,7.59,7.59,0,0,1-5.91-2.3c-1.56-1.62-2.12-4.29-2.12-7.84V37.58h-4.67V33.42h4.67V26.2Z" style="fill: none;stroke: #03244b;stroke-miterlimit: 10;stroke-width: 3px"/>
    <path d="M177.07,63.53l-0.44-3.79h-0.19a11.21,11.21,0,0,1-9.21,4.48c-6.1,0-9.21-4.29-9.21-8.65,0-7.28,6.47-11.26,18.1-11.2V43.74c0-2.49-.68-7-6.84-7A15,15,0,0,0,161.46,39l-1.24-3.61a18.69,18.69,0,0,1,9.89-2.67c9.21,0,11.45,6.28,11.45,12.32V56.31a42.42,42.42,0,0,0,.5,7.22h-5Zm-0.81-15.37c-6-.12-12.75.93-12.75,6.78a4.84,4.84,0,0,0,5.16,5.23,7.49,7.49,0,0,0,7.28-5,5.71,5.71,0,0,0,.31-1.74V48.16Z" style="fill: none;stroke: #03244b;stroke-miterlimit: 10;stroke-width: 3px"/>
    <path d="M217.81,62.41a20.15,20.15,0,0,1-8.65,1.74c-9.08,0-15-6.16-15-15.37s6.35-16,16.18-16a18.31,18.31,0,0,1,7.59,1.55l-1.24,4.23a12.7,12.7,0,0,0-6.34-1.43c-6.91,0-10.64,5.1-10.64,11.38,0,7,4.48,11.26,10.45,11.26a15.54,15.54,0,0,0,6.72-1.49Z" style="fill: none;stroke: #03244b;stroke-miterlimit: 10;stroke-width: 3px"/>
    <path d="M237.6,24.77v8.65h7.84v4.17H237.6V53.82c0,3.73,1.06,5.85,4.11,5.85a12.19,12.19,0,0,0,3.17-.37l0.25,4.11a13.4,13.4,0,0,1-4.85.75,7.59,7.59,0,0,1-5.91-2.3c-1.55-1.62-2.12-4.29-2.12-7.84V37.58h-4.67V33.42h4.67V26.2Z" style="fill: none;stroke: #03244b;stroke-miterlimit: 10;stroke-width: 3px"/>
    <path d="M306.21,62.16a26.88,26.88,0,0,1-11.07,2c-11.82,0-20.72-7.46-20.72-21.21,0-13.13,8.9-22,21.9-22,5.23,0,8.52,1.12,10,1.87L305,27.19a19.72,19.72,0,0,0-8.46-1.74c-9.83,0-16.36,6.28-16.36,17.29,0,10.26,5.91,16.86,16.11,16.86a21.67,21.67,0,0,0,8.83-1.74Z" style="fill: none;stroke: #03244b;stroke-miterlimit: 10;stroke-width: 3px"/>
    <path d="M321.14,49.47c0.12,7.4,4.85,10.45,10.33,10.45a19.81,19.81,0,0,0,8.34-1.55l0.93,3.92a24.39,24.39,0,0,1-10,1.87c-9.27,0-14.81-6.1-14.81-15.18S321.26,32.73,330,32.73c9.83,0,12.44,8.65,12.44,14.18a20.59,20.59,0,0,1-.19,2.55H321.14Zm16.05-3.92c0.06-3.48-1.43-8.9-7.59-8.9-5.54,0-8,5.1-8.4,8.9h16Z" style="fill: none;stroke: #03244b;stroke-miterlimit: 10;stroke-width: 3px"/>
    <path d="M355.23,41.57c0-3.11-.06-5.66-0.25-8.15h4.85l0.31,5h0.12a11.07,11.07,0,0,1,10-5.66c4.17,0,10.64,2.49,10.64,12.82v18h-5.47V46.17c0-4.85-1.8-8.9-7-8.9a7.78,7.78,0,0,0-7.34,5.6,7.89,7.89,0,0,0-.37,2.55v18.1h-5.47v-22Z" style="fill: none;stroke: #03244b;stroke-miterlimit: 10;stroke-width: 3px"/>
    <path d="M402.07,24.77v8.65h7.84v4.17h-7.84V53.82c0,3.73,1.06,5.85,4.11,5.85a12.19,12.19,0,0,0,3.17-.37l0.25,4.11a13.4,13.4,0,0,1-4.85.75,7.59,7.59,0,0,1-5.91-2.3c-1.55-1.62-2.12-4.29-2.12-7.84V37.58h-4.67V33.42h4.67V26.2Z" style="fill: none;stroke: #03244b;stroke-miterlimit: 10;stroke-width: 3px"/>
    <path d="M424.71,49.47c0.12,7.4,4.85,10.45,10.33,10.45a19.81,19.81,0,0,0,8.34-1.55l0.93,3.92a24.39,24.39,0,0,1-10,1.87c-9.27,0-14.81-6.1-14.81-15.18s5.35-16.24,14.12-16.24c9.83,0,12.44,8.65,12.44,14.18a20.59,20.59,0,0,1-.19,2.55H424.71Zm16-3.92c0.06-3.48-1.43-8.9-7.59-8.9-5.54,0-8,5.1-8.4,8.9h16Z" style="fill: none;stroke: #03244b;stroke-miterlimit: 10;stroke-width: 3px"/>
    <path d="M458.8,42.81c0-3.55-.06-6.59-0.25-9.39h4.79l0.19,5.91h0.25c1.37-4,4.67-6.59,8.34-6.59a5.93,5.93,0,0,1,1.55.19v5.16a8.24,8.24,0,0,0-1.87-.19c-3.86,0-6.59,2.92-7.34,7a15.44,15.44,0,0,0-.25,2.55v16H458.8V42.81Z" style="fill: none;stroke: #03244b;stroke-miterlimit: 10;stroke-width: 3px"/>
    <path d="M509.25,16.87V79.08h-4.17V16.87h4.17Z" style="fill: none;stroke: #03244b;stroke-miterlimit: 10;stroke-width: 3px"/>
  </g>
</svg>
