<svg xmlns="http://www.w3.org/2000/svg" width="79.8" height="39.4" viewBox="0 0 79.8 39.4">
  <title>isotype</title>
  <path d="M39.9,0C17.8,0,0,8.8,0,19.7S17.9,39.4,39.9,39.4s39.9-8.8,39.9-19.7S62,0,39.9,0h0ZM36.2,4.4c4.6-1.6,18.1,0,23.4,2.5,1.7,1.6-7.5,6.8-18.5,9.1-15.7,3.1-8.2-9-4.9-11.6h0ZM9.3,27.7C5.8,25.3-.9,18.3,10.3,11A39.62,39.62,0,0,1,23.6,5.9c2-.4,3.4.1,1.6,1.5C21.4,11.3,13.7,24.1,13,26.9c-0.6,1.9-1.7,2.4-3.7.8h0Zm32.1,8.2c-6.6.7-21.3-1.5-21.5-3.4,0.3-4.6,23.3-12.1,27.4-7.9,1.8,3.3-1.6,11.1-5.9,11.3h0ZM75,22.6c-1.7,3.9-7.4,8.2-19.3,11.2-1.8.4-2.5-.7-1.3-1.8,2-1.2,11.4-17,12.6-20.2,0.7-1.6,2-1,2.9-.4,3.8,2.5,6.7,6.5,5.1,11.2h0Z" style="fill: #fff"/>
</svg>
