<?xml version="1.0" encoding="utf-8"?>
<!-- Generator: Adobe Illustrator 19.2.0, SVG Export Plug-In . SVG Version: 6.00 Build 0)  -->
<svg version="1.1" id="Capa_1" xmlns="http://www.w3.org/2000/svg" xmlns:xlink="http://www.w3.org/1999/xlink" x="0px" y="0px"
	 viewBox="0 0 151 97" style="enable-background:new 0 0 151 97;" xml:space="preserve">
<style type="text/css">
	.st0{fill-rule:evenodd;clip-rule:evenodd;fill:#005AA9;}
</style>
<polygon class="st0" points="7.3,59.8 12.6,59.8 12.6,65.7 22.3,65.7 22.3,59.8 27.6,59.8 27.6,76.4 22.3,76.4 22.3,69.4 12.6,69.4 
	12.6,76.3 7.3,76.3 7.3,59.8 "/>
<polygon class="st0" points="28.2,59.8 33.4,59.8 39,66.2 44.4,59.8 49.6,59.8 41.6,70 41.6,76.4 36.3,76.4 36.3,69.5 28.2,59.8 "/>
<path class="st0" d="M50.3,59.8h5.3v12.9h8.5c1.3,0,2.2-1.3,2.2-2.8V59.8h5.3V73c0,2.1-2.4,3.3-3.7,3.3H50.3V59.8L50.3,59.8z"/>
<path class="st0" d="M72.8,59.8h17.7c2.1,0,3.8,1.3,3.8,3.9v12.7l-5.3,0V66.3c0-1.4-0.5-2.3-2.3-2.3h-8v12.4h-5.9V59.8L72.8,59.8z"
	/>
<path class="st0" d="M95.9,59.8h15.5c3.1,0,5.5,2.5,5.5,4.4v7.6c0,1.3-1.9,4.6-4.3,4.6H95.9V59.8L95.9,59.8z M101.3,72.7h8.2
	c1.2,0,2.1-0.9,2.1-2v-4.8c0-1.2-1-1.9-2.2-1.9h-8V72.7L101.3,72.7z"/>
<path class="st0" d="M123.4,59.7H140v16.7h-5.9v-4.3h-10.2v4.3h-6V65.6C117.8,61.9,121,59.7,123.4,59.7L123.4,59.7z M123.8,65.6v2.7
	H134v-4.2h-8.6C124.4,64.1,123.8,64.7,123.8,65.6L123.8,65.6z"/>
<polygon class="st0" points="141.1,59.8 146.4,59.8 146.4,76.9 141.1,76.9 141.1,59.8 "/>
<path class="st0" d="M77.1,11.7c-22.1,0-39.9,8.8-39.9,19.7c0,10.9,17.9,19.7,39.9,19.7c22.1,0,39.9-8.8,39.9-19.7
	C117.1,20.5,99.2,11.7,77.1,11.7L77.1,11.7z M73.4,16.1c4.6-1.6,18.1,0,23.4,2.5c1.7,1.6-7.5,6.8-18.5,9.1
	C62.6,30.8,70.1,18.7,73.4,16.1L73.4,16.1z M46.5,39.4C43,37,36.3,30,47.5,22.7c5.9-3.4,9.2-4.2,13.3-5.1c2-0.4,3.4,0.1,1.6,1.5
	C58.6,23,50.9,35.8,50.2,38.6C49.6,40.5,48.5,41,46.5,39.4L46.5,39.4z M78.6,47.6c-6.6,0.7-21.3-1.5-21.5-3.4
	c0.3-4.6,23.3-12.1,27.4-7.9C86.3,39.6,82.9,47.4,78.6,47.6L78.6,47.6z M112.2,34.3c-1.7,3.9-7.4,8.2-19.3,11.2
	c-1.8,0.4-2.5-0.7-1.3-1.8c2-1.2,11.4-17,12.6-20.2c0.7-1.6,2-1,2.9-0.4C110.9,25.6,113.8,29.6,112.2,34.3L112.2,34.3z"/>
</svg>
