<svg xmlns="http://www.w3.org/2000/svg" width="867.19" height="124.04" viewBox="0 0 867.19 124.04">
  <title>logo_vertical</title>
  <g>
    <rect x="-6" y="-4.98" width="867.19" height="124.04" style="fill: none"/>
    <g>
      <polygon points="277.4 20.58 297.17 20.58 297.17 50.41 332.49 50.41 332.49 20.58 352 20.58 352 104.28 332.49 104.28 332.49 69.04 296.92 69.04 296.92 103.95 277.4 103.95 277.4 20.58" style="fill: #002c5f"/>
      <polygon points="360.01 19.6 383.01 19.6 405.24 51.69 424.75 19.6 448.05 19.6 413.72 73.9 414.08 103.02 394.4 103.02 394.4 73.71 360.01 19.6" style="fill: #002c5f"/>
      <path d="M457.57,19.6H475.7V84.83h29.13c4.59,0,7.57-6.82,7.57-14V19.6h18.17V86.86c0,10.59-8,16.73-12.63,16.73H457.53v-84h0Z" style="fill: #002c5f"/>
      <path d="M549.65,20.58h62.87c7.41,0,13.38,6.37,13.38,19.35v63.33l-18.87.17V53.11c0-7-2.42-15-8.87-15L570.48,38v65.59H549.65v-83Z" style="fill: #002c5f"/>
      <path d="M642.85,20h56c16.08,0,19.87,12.43,19.87,22V80.18C718.62,86.89,711.8,103,703.27,103H642.85V20Zm20.76,64.51h27.73c7,0,7.72-1.74,7.44-9.63V50.59c0-5.89,2.17-13-5.83-13h-29.7Z" style="fill: #002c5f"/>
      <path d="M755.06,20h55.81v82.65H790.94V78.15l-34.28-.36v24.86H736.49V49c-0.45-18,4.88-29,13-29m6.9,29.34V59.3l34.42-.18V38.31H759.12c-3.39,0-2.7,6.35-2.7,11" style="fill: #002c5f"/>
      <rect x="831.38" y="19.4" width="18.96" height="84.2" style="fill: #002c5f"/>
      <path d="M124.89,5.8C61.52,5.8,10.15,31.17,10.15,62.43s51.38,56.63,114.75,56.63S239.64,93.74,239.64,62.43,188.26,5.8,124.89,5.8M114,18.41c13.1-4.63,52,0,67.13,7.26,4.84,4.64-21.57,19.55-53,26C83.21,60.73,104.57,26.1,114,18.41M36.81,85.53c-9.88-7-29.23-27.21,2.82-48.17C56.56,27.49,66,25.27,77.74,22.85c5.64-1.21,9.68.2,4.64,4.44C71.7,38.37,49.49,75,47.51,83.12,45.9,88.6,42.67,90,36.83,85.54m92.32,23.38c-18.94,2-61.07-4.24-61.88-9.67,0.79-13.07,66.91-34.88,78.8-22.79,5,9.47-4.64,31.85-16.93,32.45m96.35-38.1c-4.84,11.09-21.16,23.59-55.42,32.06-5.24,1.21-7.06-2-3.65-5,5.64-3.43,32.88-49,36.29-58.06,2-4.64,5.85-2.82,8.22-1,10.89,7.05,19.18,18.54,14.51,32.05" style="fill: #002c5f"/>
    </g>
  </g>
</svg>
